<?xml version="1.0" encoding="utf-8"?>
<!-- Generator: Adobe Illustrator 16.0.0, SVG Export Plug-In . SVG Version: 6.00 Build 0)  -->
<!DOCTYPE svg PUBLIC "-//W3C//DTD SVG 1.1//EN" "http://www.w3.org/Graphics/SVG/1.1/DTD/svg11.dtd">
<svg version="1.1" id="Layer_1" xmlns="http://www.w3.org/2000/svg" xmlns:xlink="http://www.w3.org/1999/xlink" x="0px" y="0px"
	 width="97.5px" height="97px" viewBox="0 0 97.5 97" enable-background="new 0 0 97.5 97" xml:space="preserve">
<g>
	<path fill-rule="evenodd" clip-rule="evenodd" fill="#0095DA" d="M36.937,78.522v2.622h2.585h2.584v-1.099
		c-0.875-0.178-1.737-0.393-2.584-0.642C38.644,79.146,37.781,78.852,36.937,78.522z"/>
	<path fill-rule="evenodd" clip-rule="evenodd" fill="#0095DA" d="M43.88,85.506h-0.951v2.839c0.316,0.044,0.633,0.084,0.951,0.122
		c0.542,0.062,1.086,0.114,1.633,0.155c0.854,0.063,1.716,0.1,2.585,0.108v-3.224h-2.585H43.88z"/>
	<polygon fill-rule="evenodd" clip-rule="evenodd" fill="#0095DA" points="36.937,81.864 36.937,84.834 39.521,84.834 
		42.106,84.834 42.106,81.864 39.521,81.864 	"/>
	<polygon fill-rule="evenodd" clip-rule="evenodd" fill="#0095DA" points="43.88,81.864 42.929,81.864 42.929,84.834 43.88,84.834 
		45.514,84.834 48.099,84.834 48.099,81.864 45.514,81.864 	"/>
	<path fill-rule="evenodd" clip-rule="evenodd" fill="#0095DA" d="M43.88,80.354c-0.318-0.046-0.636-0.097-0.951-0.153v0.942h0.951
		h1.633h2.585v-0.458c-0.871-0.011-1.732-0.057-2.585-0.136C44.965,80.499,44.421,80.433,43.88,80.354z"/>
	<path fill-rule="evenodd" clip-rule="evenodd" fill="#0095DA" d="M39.521,67.769l2.145-3.05v-9.397
		c-0.979-1.049-1.722-2.323-2.145-3.738c-0.259-0.864-0.398-1.782-0.398-2.731s0.139-1.866,0.398-2.73
		c0.129-0.433,0.289-0.852,0.476-1.256h-0.476h-4.833H16.863c0.949-7.603,4.576-14.374,9.906-19.342l6.927,9.892v5.797h0.993h4.833
		h2.145v-8.286v-0.025l-0.077-0.109l-2.068-2.955l-4.833-6.902l-6.054-8.646c-1.311,0.755-2.575,1.584-3.786,2.479l-0.001-0.001
		C15.409,23.739,9.156,34.772,8.672,47.284l-0.002,0.062c-0.006,0.149-0.011,0.299-0.015,0.449L8.65,47.998
		c-0.001,0.063-0.003,0.126-0.004,0.19h0c-0.003,0.221-0.005,0.442-0.005,0.665c0,1.345,0.067,2.674,0.198,3.986h24.857v9.403
		l-6.946,9.92c-4.639-4.33-7.984-10.026-9.393-16.448H9.23c2.052,11.817,9.309,21.85,19.322,27.65l6.136-8.724L39.521,67.769z"/>
	<path fill-rule="evenodd" clip-rule="evenodd" fill="#0095DA" d="M36.937,85.506v1.522c0.85,0.257,1.712,0.487,2.585,0.688
		c0.852,0.196,1.713,0.365,2.584,0.505v-2.715h-2.584H36.937z"/>
	<path fill-rule="evenodd" clip-rule="evenodd" fill="#0095DA" d="M32.767,85.506c0.632,0.272,1.273,0.528,1.921,0.767
		c0.471,0.174,0.946,0.339,1.425,0.496v-1.263h-1.425H32.767z"/>
	<path fill-rule="evenodd" clip-rule="evenodd" fill="#0095DA" d="M51.506,85.506h-2.584v3.223c0.869-0.009,1.731-0.046,2.584-0.11
		c0.541-0.041,1.078-0.091,1.612-0.153c0.326-0.037,0.649-0.079,0.973-0.124v-2.836h-0.973H51.506z"/>
	<path fill-rule="evenodd" clip-rule="evenodd" fill="#0095DA" d="M34.688,79.109l-1.425,2.035h1.425h1.425v-2.956
		c-0.2-0.085-0.399-0.171-0.598-0.26L34.688,79.109z"/>
	<path fill-rule="evenodd" clip-rule="evenodd" fill="#0095DA" d="M32.759,81.864l-1.925,2.749c0.151,0.075,0.302,0.148,0.454,0.221
		h3.4h1.425v-2.97h-1.425H32.759z"/>
	<path fill-rule="evenodd" clip-rule="evenodd" fill="#0095DA" d="M39.521,25.436l4.359,6.226l0.632,0.903v7.735
		c0.324-0.154,0.658-0.29,1.001-0.406c0.938-0.317,1.942-0.49,2.986-0.49c1.051,0,2.063,0.175,3.006,0.497
		c0.335,0.114,0.661,0.247,0.979,0.397v-7.682l0.013,0.009l0.621-0.888l4.381-6.256l4.836-6.907l3.823-5.459
		c-1.24-0.614-2.515-1.166-3.823-1.65c-1.271-0.471-2.57-0.879-3.898-1.22l-0.938,1.34l-4.381,6.255l-1.612,2.303l-2.98,4.257
		L48.5,24.361l-2.986-4.264l-1.633-2.333l-4.359-6.225l-0.915-1.307c-1.334,0.341-2.641,0.75-3.918,1.222
		c-1.303,0.482-2.574,1.03-3.809,1.64l3.809,5.439L39.521,25.436z"/>
	<polygon fill-rule="evenodd" clip-rule="evenodd" fill="#0095DA" points="51.506,81.864 48.921,81.864 48.921,84.834 
		51.506,84.834 53.118,84.834 54.091,84.834 54.091,81.864 53.118,81.864 	"/>
	<path fill-rule="evenodd" clip-rule="evenodd" fill="#0095DA" d="M60.906,85.506v1.256c0.48-0.157,0.957-0.323,1.429-0.498
		c0.641-0.237,1.273-0.49,1.897-0.758h-1.897H60.906z"/>
	<path fill-rule="evenodd" clip-rule="evenodd" fill="#0095DA" d="M74.829,18.935l-0.117-0.103c-0.053-0.047-0.105-0.093-0.16-0.139
		c-0.086-0.075-0.174-0.15-0.262-0.225l-0.178-0.15c-0.087-0.073-0.175-0.146-0.263-0.218l-0.147-0.122
		c-0.104-0.086-0.21-0.171-0.316-0.256l-0.083-0.066c-0.13-0.104-0.26-0.207-0.392-0.308l-0.015-0.012l-0.01-0.007
		c-1.437-1.113-2.949-2.131-4.533-3.043l-6.019,8.596l-4.836,6.908l-2.105,3.006l-0.076,0.109v0.025v8.286h2.182h4.836h0.953v-5.797
		l6.933-9.9c5.335,4.968,8.963,11.744,9.911,19.35H62.335h-4.836h-0.497c0.197,0.426,0.363,0.869,0.497,1.327
		c0.245,0.843,0.377,1.736,0.377,2.659c0,0.924-0.132,1.816-0.377,2.66c-0.422,1.45-1.179,2.755-2.182,3.825v9.33l2.182,3.101
		l4.836,6.876l6.127,8.71c10.004-5.802,17.254-15.831,19.304-27.642H79.64c-1.406,6.408-4.739,12.094-9.362,16.419l-6.989-9.982
		v-9.312H88.16c0.131-1.312,0.198-2.641,0.198-3.986s-0.067-2.674-0.198-3.986h-0.001C87.135,34.564,82.187,25.415,74.829,18.935z"
		/>
	<path fill-rule="evenodd" clip-rule="evenodd" fill="#0095DA" d="M54.914,80.041v1.103h2.585h2.584v-2.629
		c-0.845,0.33-1.706,0.625-2.584,0.883C56.651,79.647,55.789,79.862,54.914,80.041z"/>
	<path fill-rule="evenodd" clip-rule="evenodd" fill="#0095DA" d="M63.764,81.144l-1.429-2.041l-0.83-1.185
		c-0.198,0.089-0.397,0.176-0.599,0.261v2.964h1.429H63.764z"/>
	<path fill-rule="evenodd" clip-rule="evenodd" fill="#0095DA" d="M62.335,81.864h-1.429v2.97h1.429h3.376
		c0.159-0.076,0.317-0.153,0.475-0.231l-1.917-2.739H62.335z"/>
	<path fill-rule="evenodd" clip-rule="evenodd" fill="#0095DA" d="M55.064,77.229l0.055-0.013l0.075-0.018l0.081-0.02l0.049-0.012
		l0.107-0.026l0.022-0.006l0.13-0.033l0.003,0l0.126-0.032l0.029-0.008l0.1-0.026l0.055-0.015l0.074-0.02l0.081-0.022l0.048-0.013
		l0.106-0.029l0.022-0.006l0.128-0.037l0.004,0l0.124-0.036l0.029-0.008l0.099-0.029l0.055-0.016l0.073-0.022l0.08-0.024
		l0.047-0.014l0.105-0.032l0.022-0.007l0.127-0.04l0.004-0.001l0.123-0.04l0.029-0.009l0.097-0.031l0.055-0.018l0.069-0.022
		l0.003-0.001l0.079-0.026l0.047-0.015l0.104-0.036l0.021-0.007l0.125-0.043l0.005-0.001l0.121-0.042l0.029-0.011l0.096-0.034
		l0.055-0.019l0.07-0.025l0.079-0.028l0.046-0.017l0.104-0.038l0.02-0.008l0.125-0.046c0.422-0.158,0.84-0.326,1.253-0.502
		l-2.383-3.404l-4.381-6.256l-0.621-0.888l-0.013-7.673V53.8c0.225-0.184,0.437-0.384,0.634-0.597
		c1.058-1.139,1.705-2.669,1.705-4.351s-0.647-3.212-1.705-4.351c-0.465-0.501-1.009-0.927-1.612-1.256
		c-0.894-0.489-1.918-0.766-3.006-0.766c-1.08,0-2.096,0.273-2.986,0.754c-0.611,0.332-1.163,0.761-1.633,1.268
		c-1.057,1.139-1.705,2.669-1.705,4.351s0.647,3.212,1.705,4.351c0.197,0.212,0.408,0.411,0.632,0.595v3.625v7.735l-0.632,0.903
		l-4.359,6.226l-2.364,3.376c0.774,0.33,1.562,0.627,2.364,0.89c0.243,0.08,0.488,0.157,0.734,0.23l0.049,0.014l0.375,0.109
		l0.009,0.002l0.128,0.036l0.005,0.001l0.124,0.034l0.018,0.005l0.111,0.03l0.129,0.034l0.045,0.012l0.084,0.021l0.058,0.015
		l0.072,0.018l0.072,0.018l0.058,0.014l0.085,0.021l0.044,0.011l0.099,0.024l0.031,0.007l0.113,0.027l0.018,0.003l0.126,0.029
		l0.004,0.001l0.13,0.029l0.01,0.002l0.121,0.027l0.023,0.004l0.107,0.024l0.037,0.008l0.145,0.03l0.081,0.017l0.064,0.013
		l0.291,0.057l0.04,0.007l0.106,0.02l0.026,0.005l0.12,0.021l0.012,0.003l0.132,0.023h0.001l0.131,0.023l0.188,0.031
		c0.541,0.087,1.084,0.16,1.633,0.217c0.983,0.102,1.979,0.155,2.986,0.155h0c1.014,0,2.017-0.053,3.006-0.157
		c0.542-0.057,1.079-0.128,1.612-0.215l0.267-0.044l0.104-0.018l0.055-0.01l0.154-0.028l0.005,0l0.051-0.009l0.107-0.021
		l0.024-0.005l0.132-0.025l0.003,0l0.129-0.026l0.028-0.006l0.103-0.02l0.056-0.012l0.157-0.034l0.05-0.01l0.107-0.023l0.023-0.005
		l0.131-0.029l0.003,0l0.156-0.036L55.064,77.229z"/>
	<path fill-rule="evenodd" clip-rule="evenodd" fill="#0095DA" d="M51.506,80.548c-0.852,0.08-1.714,0.126-2.584,0.137v0.459h2.584
		h1.612h0.973v-0.946c-0.322,0.057-0.646,0.109-0.973,0.157C52.585,80.433,52.048,80.497,51.506,80.548z"/>
	<path fill-rule="evenodd" clip-rule="evenodd" fill="#0095DA" d="M54.914,85.506v2.712c0.871-0.141,1.733-0.311,2.585-0.507
		c0.872-0.202,1.734-0.432,2.584-0.689v-1.516h-2.584H54.914z"/>
	<polygon fill-rule="evenodd" clip-rule="evenodd" fill="#0095DA" points="54.914,81.864 54.914,84.834 57.499,84.834 
		60.083,84.834 60.083,81.864 57.499,81.864 	"/>
	<path fill-rule="evenodd" clip-rule="evenodd" fill="#0095DA" d="M93.558,47.244C92.803,25.266,75.99,6.59,53.443,4.111
		c-0.524-0.058-1.047-0.094-1.568-0.134c-0.065-0.005-0.13-0.012-0.195-0.017c-0.379-0.027-0.757-0.047-1.135-0.064
		c-0.352-0.017-0.702-0.029-1.052-0.038c-0.242-0.005-0.485-0.014-0.728-0.016c-15.469-0.15-29.526,7.582-37.833,19.741l0.141,0.136
		c-3.538,5.234-6.017,11.282-7.092,17.869c-0.125,0.771-0.232,1.548-0.319,2.333C1.08,67.26,16.88,88.391,39.507,92.952
		c0.005,0.001,0.01,0.002,0.015,0.003c0.022,0.004,0.045,0.007,0.067,0.012c0.678,0.135,1.36,0.259,2.049,0.364
		c0.09,0.014,0.181,0.023,0.271,0.037c0.542,0.08,1.084,0.161,1.634,0.222c0.11,0.012,0.22,0.017,0.33,0.028
		c0.002,0,0.005,0,0.007,0.001c0.036,0.003,0.073,0.005,0.108,0.009c5.509,0.551,10.889,0.085,15.955-1.245l0,0
		c0.799-0.21,1.589-0.442,2.371-0.694c0.007-0.002,0.014-0.003,0.021-0.006c0.011-0.003,0.022-0.008,0.033-0.011
		c16.359-5.295,28.945-19.729,30.955-37.891c0.107-0.966,0.179-1.929,0.224-2.887C93.604,49.666,93.6,48.451,93.558,47.244z
		 M67.198,86.366v0.03c-1.567,0.782-3.191,1.469-4.863,2.053c-1.571,0.549-3.186,1.008-4.836,1.369
		c-1.435,0.314-2.896,0.555-4.381,0.717c-0.534,0.059-1.071,0.107-1.612,0.146c-0.992,0.071-1.995,0.106-3.006,0.106
		c-1.004,0-2-0.035-2.986-0.104c-0.547-0.039-1.092-0.088-1.633-0.147c-1.477-0.162-2.932-0.401-4.359-0.712
		c-1.649-0.36-3.262-0.817-4.833-1.365c-1.395-0.487-2.756-1.044-4.079-1.669v-0.034C16.409,80.043,6.58,65.595,6.58,48.853
		c0-18.303,11.745-33.865,28.109-39.573c1.571-0.548,3.184-1.007,4.833-1.367c1.267-0.276,2.556-0.496,3.863-0.655v1.786
		c-0.792,0.212-1.374,0.921-1.374,1.762c0,1.009,0.837,1.828,1.87,1.828c0.702,0,1.313-0.379,1.633-0.938
		c0.151-0.263,0.237-0.566,0.237-0.89s-0.086-0.626-0.237-0.89c-0.242-0.422-0.649-0.741-1.137-0.872V7.148
		c0.377-0.037,0.757-0.069,1.137-0.096c0.685-0.049,1.375-0.081,2.069-0.096v5.089c-0.879,0.236-1.619,0.803-2.069,1.556
		c-0.299,0.5-0.471,1.081-0.471,1.702s0.172,1.202,0.471,1.702c0.6,1.002,1.712,1.676,2.986,1.676c1.289,0,2.413-0.689,3.006-1.711
		c0.286-0.492,0.45-1.061,0.45-1.667s-0.164-1.174-0.45-1.667c-0.448-0.77-1.196-1.351-2.09-1.591V6.956
		c0.701,0.015,1.398,0.048,2.09,0.098c0.374,0.026,0.746,0.058,1.116,0.094v1.895c-0.474,0.127-0.872,0.432-1.116,0.836
		c-0.163,0.271-0.257,0.588-0.257,0.926s0.094,0.654,0.257,0.926c0.325,0.54,0.926,0.902,1.612,0.902c1.033,0,1.87-0.819,1.87-1.828
		c0-0.841-0.582-1.55-1.374-1.762V7.257c1.314,0.16,2.61,0.381,3.885,0.66c1.65,0.362,3.265,0.821,4.836,1.371
		c16.351,5.715,28.084,21.271,28.084,39.564C90.419,65.276,80.963,79.495,67.198,86.366z M54.063,10.805
		c0,0.51-0.424,0.923-0.945,0.923c-0.521,0-0.944-0.413-0.944-0.923s0.424-0.923,0.944-0.923
		C53.64,9.882,54.063,10.295,54.063,10.805z M43.88,9.882c0.521,0,0.945,0.413,0.945,0.923s-0.423,0.923-0.945,0.923
		c-0.521,0-0.944-0.413-0.944-0.923S43.359,9.882,43.88,9.882z M48.5,13.597c0.964,0,1.746,0.764,1.746,1.706
		s-0.781,1.706-1.746,1.706c-0.964,0-1.746-0.764-1.746-1.706S47.536,13.597,48.5,13.597z M4.076,41.611
		c0.007-0.045,0.018-0.089,0.026-0.134c-0.067,0.409-0.122,0.821-0.178,1.233C3.975,42.344,4.016,41.974,4.076,41.611z
		 M3.754,43.932c0.021-0.183,0.053-0.361,0.075-0.543c-0.066,0.544-0.122,1.092-0.168,1.642C3.693,44.664,3.714,44.299,3.754,43.932
		z M3.536,47.087c-0.022,0.567-0.034,1.136-0.035,1.708C3.499,48.229,3.515,47.658,3.536,47.087z M3.646,45.216
		C3.6,45.788,3.564,46.364,3.54,46.942C3.563,46.368,3.6,45.793,3.646,45.216z M93.209,53.928c0.027-0.244,0.051-0.489,0.074-0.733
		c-0.018,0.191-0.031,0.382-0.053,0.574C93.225,53.822,93.215,53.875,93.209,53.928z M93.406,51.611
		c-0.015,0.255-0.027,0.509-0.047,0.765C93.379,52.123,93.391,51.866,93.406,51.611z"/>
</g>
</svg>
